G04*
G04 #@! TF.GenerationSoftware,Altium Limited,Altium Designer,25.5.2 (35)*
G04*
G04 Layer_Color=16711935*
%FSLAX44Y44*%
%MOMM*%
G71*
G04*
G04 #@! TF.SameCoordinates,B8EBF339-C92A-47AB-88FE-990221ABDF71*
G04*
G04*
G04 #@! TF.FilePolarity,Positive*
G04*
G01*
G75*
%ADD10C,0.0010*%
D10*
X852628Y0D02*
G03*
X822628Y30000I-30000J0D01*
G01*
X130000D02*
G03*
X100000Y0I0J-30000D01*
G01*
X902987Y980981D02*
G03*
X889327Y984641I-8660J-5000D01*
G01*
X912987Y963660D02*
G03*
X926647Y960000I8660J5000D01*
G01*
X820045Y944641D02*
G03*
X816384Y930981I5000J-8660D01*
G01*
X822724Y900000D02*
G03*
X826384Y913660I-5000J8660D01*
G01*
X116244Y503660D02*
G03*
X129904Y500000I8660J5000D01*
G01*
X25981Y440000D02*
G03*
X29641Y453660I-5000J8660D01*
G01*
X23301Y484641D02*
G03*
X19641Y470981I5000J-8660D01*
G01*
X106243Y520981D02*
G03*
X92583Y524641I-8660J-5000D01*
G01*
X0Y0D02*
X100000D01*
X852628D02*
X952628D01*
X130000Y30000D02*
X822628Y30000D01*
X952628Y0D02*
Y975000D01*
X926647Y960000D02*
X952628Y975000D01*
X902987Y980981D02*
X912987Y963660D01*
X820045Y944641D02*
X889327Y984641D01*
X816384Y930981D02*
X826384Y913660D01*
X129904Y500000D02*
X822724Y900000D01*
X0Y425000D02*
X25981Y440000D01*
X19641Y470981D02*
X29641Y453660D01*
X23301Y484641D02*
X92583Y524641D01*
X106244Y520981D02*
X116244Y503660D01*
X0Y0D02*
Y425000D01*
M02*
