G04*
G04 #@! TF.GenerationSoftware,Altium Limited,Altium Designer,25.5.2 (35)*
G04*
G04 Layer_Physical_Order=1*
G04 Layer_Color=255*
%FSLAX44Y44*%
%MOMM*%
G71*
G04*
G04 #@! TF.SameCoordinates,B8EBF339-C92A-47AB-88FE-990221ABDF71*
G04*
G04*
G04 #@! TF.FilePolarity,Positive*
G04*
G01*
G75*
G36*
X895129Y980841D02*
X896062Y980591D01*
X896928Y980164D01*
X897694Y979576D01*
X898331Y978850D01*
X898572Y978432D01*
X898572Y978432D01*
X908572Y961111D01*
X908656Y961016D01*
X908702Y960898D01*
X909234Y960073D01*
X909497Y959801D01*
X909686Y959474D01*
X910978Y958000D01*
X911377Y957695D01*
X911708Y957317D01*
X913263Y956124D01*
X913714Y955902D01*
X914112Y955596D01*
X915870Y954729D01*
X916355Y954599D01*
X916805Y954377D01*
X918699Y953870D01*
X919200Y953837D01*
X919685Y953707D01*
X921641Y953579D01*
X922139Y953644D01*
X922640Y953611D01*
X924583Y953867D01*
X925059Y954029D01*
X925557Y954094D01*
X927413Y954724D01*
X927740Y954913D01*
X928103Y955017D01*
X928976Y955465D01*
X929076Y955544D01*
X929196Y955585D01*
X945330Y964900D01*
X947530Y963630D01*
Y5098D01*
X857293D01*
X857106Y6518D01*
X856998Y6837D01*
X856976Y7172D01*
X855960Y10963D01*
X855811Y11264D01*
X855746Y11594D01*
X854244Y15220D01*
X854057Y15499D01*
X853949Y15818D01*
X851987Y19216D01*
X851765Y19469D01*
X851616Y19770D01*
X849227Y22884D01*
X848975Y23105D01*
X848788Y23385D01*
X846013Y26160D01*
X845733Y26347D01*
X845512Y26600D01*
X842398Y28988D01*
X842097Y29137D01*
X841844Y29359D01*
X838446Y31321D01*
X838127Y31429D01*
X837847Y31616D01*
X834222Y33118D01*
X833892Y33183D01*
X833590Y33332D01*
X829800Y34348D01*
X829464Y34370D01*
X829146Y34478D01*
X825255Y34990D01*
X825003Y34973D01*
X824757Y35031D01*
X822795Y35095D01*
X822711Y35081D01*
X822628Y35098D01*
X130000Y35098D01*
X129917Y35081D01*
X129833Y35095D01*
X127871Y35031D01*
X127625Y34973D01*
X127373Y34990D01*
X123482Y34478D01*
X123163Y34370D01*
X122828Y34348D01*
X119037Y33332D01*
X118736Y33183D01*
X118406Y33118D01*
X114781Y31616D01*
X114501Y31429D01*
X114182Y31321D01*
X110784Y29359D01*
X110531Y29137D01*
X110230Y28988D01*
X107116Y26600D01*
X106895Y26347D01*
X106615Y26160D01*
X103840Y23385D01*
X103653Y23105D01*
X103400Y22884D01*
X101011Y19770D01*
X100863Y19469D01*
X100641Y19216D01*
X98679Y15818D01*
X98571Y15499D01*
X98384Y15220D01*
X96882Y11594D01*
X96817Y11264D01*
X96668Y10963D01*
X95652Y7172D01*
X95630Y6837D01*
X95522Y6518D01*
X95335Y5098D01*
X5098D01*
Y422057D01*
X28530Y435585D01*
X28625Y435669D01*
X28743Y435716D01*
X29568Y436247D01*
X29840Y436510D01*
X30167Y436699D01*
X31641Y437991D01*
X31946Y438390D01*
X32324Y438721D01*
X33517Y440276D01*
X33739Y440727D01*
X34045Y441125D01*
X34912Y442883D01*
X35042Y443368D01*
X35264Y443818D01*
X35771Y445712D01*
X35804Y446213D01*
X35934Y446698D01*
X36062Y448654D01*
X35997Y449152D01*
X36030Y449653D01*
X35774Y451596D01*
X35612Y452072D01*
X35547Y452570D01*
X34917Y454426D01*
X34728Y454753D01*
X34624Y455116D01*
X34176Y455989D01*
X34097Y456089D01*
X34056Y456209D01*
X24056Y473530D01*
X23814Y473948D01*
X23504Y474862D01*
X23378Y475820D01*
X23441Y476783D01*
X23691Y477716D01*
X24118Y478582D01*
X24706Y479348D01*
X25432Y479985D01*
X25850Y480226D01*
X25850Y480226D01*
X95132Y520226D01*
X95550Y520467D01*
X96465Y520778D01*
X97422Y520904D01*
X98386Y520841D01*
X99318Y520591D01*
X100184Y520164D01*
X100950Y519576D01*
X101587Y518850D01*
X101829Y518432D01*
X111829Y501111D01*
X111912Y501016D01*
X111959Y500898D01*
X112491Y500073D01*
X112754Y499801D01*
X112943Y499474D01*
X114235Y498000D01*
X114634Y497695D01*
X114965Y497317D01*
X116520Y496124D01*
X116970Y495902D01*
X117368Y495596D01*
X119127Y494729D01*
X119612Y494599D01*
X120062Y494377D01*
X121955Y493870D01*
X122456Y493837D01*
X122941Y493707D01*
X124897Y493579D01*
X125395Y493644D01*
X125896Y493611D01*
X127840Y493867D01*
X128315Y494029D01*
X128813Y494094D01*
X130669Y494724D01*
X130997Y494913D01*
X131360Y495017D01*
X132233Y495465D01*
X132332Y495544D01*
X132453Y495585D01*
X825273Y895585D01*
X825368Y895669D01*
X825487Y895715D01*
X826311Y896247D01*
X826583Y896510D01*
X826910Y896699D01*
X828384Y897992D01*
X828690Y898390D01*
X829067Y898721D01*
X830260Y900276D01*
X830483Y900727D01*
X830788Y901125D01*
X831655Y902883D01*
X831785Y903368D01*
X832007Y903818D01*
X832515Y905712D01*
X832548Y906213D01*
X832678Y906698D01*
X832806Y908654D01*
X832740Y909152D01*
X832773Y909653D01*
X832517Y911596D01*
X832356Y912072D01*
X832290Y912570D01*
X831660Y914426D01*
X831471Y914753D01*
X831367Y915116D01*
X830919Y915989D01*
X830840Y916089D01*
X830799Y916209D01*
X820799Y933530D01*
X820799Y933530D01*
X820558Y933948D01*
X820247Y934862D01*
X820121Y935820D01*
X820185Y936783D01*
X820434Y937716D01*
X820862Y938582D01*
X821450Y939348D01*
X822176Y939985D01*
X822594Y940226D01*
X891876Y980226D01*
X892294Y980468D01*
X893208Y980778D01*
X894165Y980904D01*
X895129Y980841D01*
D02*
G37*
%LPC*%
G36*
X904600Y75098D02*
X900660D01*
X900168Y75000D01*
X899666D01*
X895802Y74231D01*
X895338Y74039D01*
X894845Y73941D01*
X891206Y72434D01*
X890788Y72155D01*
X890324Y71963D01*
X887048Y69774D01*
X886693Y69419D01*
X886276Y69140D01*
X883490Y66354D01*
X883211Y65937D01*
X882856Y65581D01*
X880667Y62306D01*
X880475Y61842D01*
X880196Y61424D01*
X878689Y57785D01*
X878591Y57292D01*
X878399Y56828D01*
X877630Y52964D01*
Y52462D01*
X877532Y51970D01*
Y48030D01*
X877630Y47538D01*
Y47036D01*
X878399Y43172D01*
X878591Y42708D01*
X878689Y42215D01*
X880196Y38575D01*
X880475Y38158D01*
X880667Y37694D01*
X882856Y34418D01*
X883211Y34063D01*
X883490Y33646D01*
X886276Y30860D01*
X886693Y30581D01*
X887048Y30226D01*
X890324Y28037D01*
X890788Y27845D01*
X891206Y27566D01*
X894845Y26059D01*
X895338Y25961D01*
X895802Y25769D01*
X899666Y25000D01*
X900168D01*
X900660Y24902D01*
X904600D01*
X905092Y25000D01*
X905594D01*
X909458Y25769D01*
X909922Y25961D01*
X910415Y26059D01*
X914054Y27566D01*
X914472Y27845D01*
X914936Y28037D01*
X918212Y30226D01*
X918567Y30581D01*
X918984Y30860D01*
X921770Y33646D01*
X922049Y34063D01*
X922404Y34418D01*
X924593Y37694D01*
X924785Y38158D01*
X925064Y38575D01*
X926571Y42215D01*
X926669Y42708D01*
X926861Y43172D01*
X927630Y47036D01*
Y47538D01*
X927728Y48030D01*
Y51970D01*
X927630Y52462D01*
Y52964D01*
X926861Y56828D01*
X926669Y57292D01*
X926571Y57785D01*
X925064Y61424D01*
X924785Y61842D01*
X924593Y62306D01*
X922404Y65581D01*
X922049Y65936D01*
X921770Y66354D01*
X918984Y69140D01*
X918567Y69419D01*
X918212Y69774D01*
X914936Y71963D01*
X914472Y72155D01*
X914054Y72434D01*
X910415Y73941D01*
X909922Y74039D01*
X909458Y74231D01*
X905594Y75000D01*
X905092D01*
X904600Y75098D01*
D02*
G37*
G36*
X51970D02*
X48030D01*
X47538Y75000D01*
X47036D01*
X43172Y74231D01*
X42708Y74039D01*
X42215Y73941D01*
X38575Y72434D01*
X38158Y72155D01*
X37694Y71963D01*
X34418Y69774D01*
X34063Y69419D01*
X33646Y69140D01*
X30860Y66354D01*
X30581Y65937D01*
X30226Y65581D01*
X28037Y62306D01*
X27845Y61842D01*
X27566Y61424D01*
X26059Y57785D01*
X25961Y57292D01*
X25769Y56828D01*
X25000Y52964D01*
Y52462D01*
X24902Y51970D01*
Y48030D01*
X25000Y47538D01*
Y47036D01*
X25769Y43172D01*
X25961Y42708D01*
X26059Y42215D01*
X27566Y38575D01*
X27845Y38158D01*
X28037Y37694D01*
X30226Y34418D01*
X30581Y34063D01*
X30860Y33646D01*
X33646Y30860D01*
X34063Y30581D01*
X34418Y30226D01*
X37694Y28037D01*
X38158Y27845D01*
X38575Y27566D01*
X42215Y26059D01*
X42708Y25961D01*
X43172Y25769D01*
X47036Y25000D01*
X47538D01*
X48030Y24902D01*
X51970D01*
X52462Y25000D01*
X52964D01*
X56828Y25769D01*
X57292Y25961D01*
X57785Y26059D01*
X61424Y27566D01*
X61842Y27845D01*
X62306Y28037D01*
X65581Y30226D01*
X65936Y30581D01*
X66354Y30860D01*
X69140Y33646D01*
X69419Y34063D01*
X69774Y34418D01*
X71963Y37694D01*
X72155Y38158D01*
X72434Y38575D01*
X73941Y42215D01*
X74039Y42708D01*
X74231Y43172D01*
X75000Y47036D01*
Y47538D01*
X75098Y48030D01*
Y51970D01*
X75000Y52462D01*
Y52964D01*
X74231Y56828D01*
X74039Y57292D01*
X73941Y57785D01*
X72434Y61424D01*
X72155Y61842D01*
X71963Y62306D01*
X69774Y65581D01*
X69419Y65936D01*
X69140Y66354D01*
X66354Y69140D01*
X65937Y69419D01*
X65581Y69774D01*
X62306Y71963D01*
X61842Y72155D01*
X61424Y72434D01*
X57785Y73941D01*
X57292Y74039D01*
X56828Y74231D01*
X52964Y75000D01*
X52462D01*
X51970Y75098D01*
D02*
G37*
%LPD*%
M02*
