G04*
G04 #@! TF.GenerationSoftware,Altium Limited,Altium Designer,25.5.2 (35)*
G04*
G04 Layer_Color=16711935*
%FSLAX44Y44*%
%MOMM*%
G71*
G04*
G04 #@! TF.SameCoordinates,D6EE3F8F-7919-4E83-9E72-7BDF4B07530C*
G04*
G04*
G04 #@! TF.FilePolarity,Negative*
G04*
G01*
G75*
G36*
X329641Y528660D02*
X319641Y545981D01*
X319149Y546834D01*
X318515Y548699D01*
X318258Y550652D01*
X318387Y552618D01*
X318897Y554520D01*
X319768Y556287D01*
X320967Y557850D01*
X322448Y559149D01*
X323301Y559641D01*
X323301Y559641D01*
X392583Y599641D01*
X393436Y600133D01*
X395302Y600766D01*
X397254Y601024D01*
X399220Y600895D01*
X401123Y600385D01*
X402890Y599514D01*
X404452Y598315D01*
X405751Y596834D01*
X406244Y595981D01*
X406244Y595981D01*
X416244Y578660D01*
X329641Y528660D01*
D02*
G37*
G36*
X1126384Y988660D02*
X1116384Y1005981D01*
X1115892Y1006834D01*
X1115259Y1008699D01*
X1115002Y1010652D01*
X1115130Y1012618D01*
X1115640Y1014520D01*
X1116512Y1016287D01*
X1117711Y1017850D01*
X1119192Y1019149D01*
X1120045Y1019641D01*
X1120045Y1019641D01*
X1189327Y1059641D01*
X1190180Y1060133D01*
X1192045Y1060767D01*
X1193998Y1061024D01*
X1195964Y1060895D01*
X1197866Y1060385D01*
X1199633Y1059514D01*
X1201196Y1058315D01*
X1202495Y1056834D01*
X1202987Y1055981D01*
X1202987Y1055981D01*
X1212987Y1038660D01*
X1126384Y988660D01*
D02*
G37*
M02*
