G04*
G04 #@! TF.GenerationSoftware,Altium Limited,Altium Designer,25.5.2 (35)*
G04*
G04 Layer_Color=16711935*
%FSLAX44Y44*%
%MOMM*%
G71*
G04*
G04 #@! TF.SameCoordinates,D6EE3F8F-7919-4E83-9E72-7BDF4B07530C*
G04*
G04*
G04 #@! TF.FilePolarity,Positive*
G04*
G01*
G75*
%ADD10C,0.2000*%
D10*
X1202987Y1055981D02*
G03*
X1189327Y1059641I-8660J-5000D01*
G01*
X1212987Y1038660D02*
G03*
X1226647Y1035000I8660J5000D01*
G01*
X1120045Y1019641D02*
G03*
X1116384Y1005981I5000J-8660D01*
G01*
X1122724Y975000D02*
G03*
X1126384Y988660I-5000J8660D01*
G01*
X416244Y578660D02*
G03*
X429904Y575000I8660J5000D01*
G01*
X325981Y515000D02*
G03*
X329641Y528660I-5000J8660D01*
G01*
X323301Y559641D02*
G03*
X319641Y545981I5000J-8660D01*
G01*
X406244Y595981D02*
G03*
X392583Y599641I-8660J-5000D01*
G01*
X1252628Y75000D02*
Y1050000D01*
X1226647Y1035000D02*
X1252628Y1050000D01*
X1202987Y1055981D02*
X1212987Y1038660D01*
X1120045Y1019641D02*
X1189327Y1059641D01*
X1116385Y1005981D02*
X1126384Y988660D01*
X429904Y575000D02*
X1122724Y975000D01*
X300000Y500000D02*
X325981Y515000D01*
X319641Y545981D02*
X329641Y528660D01*
X323301Y559641D02*
X392583Y599641D01*
X406244Y595981D02*
X416244Y578660D01*
X300000Y75000D02*
X1252628D01*
X300000D02*
Y500000D01*
M02*
